<svg xmlns="http://www.w3.org/2000/svg"><symbol id="icon_arrow-down" viewBox="0 0 12 29"><path d="M6 0v27m0 0l5-6m-5 6l-5-6" stroke-width="2"/></symbol><symbol id="icon_arrow-next" viewBox="0 0 13 23"><path d="M1 22l10-10.5L1 1" stroke-width="2"/></symbol><symbol id="icon_arrow-prev" viewBox="0 0 13 23"><path d="M12 1L2 11.5 12 22" stroke-width="2"/></symbol><symbol id="icon_cart" viewBox="0 0 22 20"><path d="M1 1h3.636l2.437 11.477c.083.395.31.75.643 1.002a1.89 1.89 0 001.175.378h8.836c.427.008.843-.126 1.175-.378a1.7 1.7 0 00.643-1.002L21 5.286H5.545m3.637 12.857c0 .473-.407.857-.91.857-.501 0-.908-.384-.908-.857 0-.474.407-.857.909-.857s.909.383.909.857zm10 0c0 .473-.407.857-.91.857-.501 0-.908-.384-.908-.857 0-.474.407-.857.909-.857s.909.383.909.857z" stroke-width="2" stroke-linecap="round" stroke-linejoin="round"/></symbol><symbol id="icon_facebook" viewBox="0 0 12 20"><path d="M7.583 11.5h2.604l1.042-4H7.583v-2c0-1.03 0-2 2.083-2h1.563V.14C10.889.097 9.607 0 8.252 0 5.424 0 3.416 1.657 3.416 4.7v2.8H.291v4h3.125V20h4.167v-8.5z"/></symbol><symbol id="icon_instagram" viewBox="0 0 20 20"><path d="M10 0c2.717 0 3.056.01 4.122.06 1.065.05 1.79.217 2.428.465.66.254 1.216.598 1.772 1.153.509.5.902 1.105 1.153 1.772.247.637.415 1.363.465 2.428.047 1.066.06 1.405.06 4.122 0 2.717-.01 3.056-.06 4.122-.05 1.065-.218 1.79-.465 2.428a4.883 4.883 0 01-1.153 1.772c-.5.508-1.105.902-1.772 1.153-.637.247-1.363.415-2.428.465-1.066.047-1.405.06-4.122.06-2.717 0-3.056-.01-4.122-.06-1.065-.05-1.79-.218-2.428-.465a4.89 4.89 0 01-1.772-1.153A4.904 4.904 0 01.525 16.55C.277 15.913.11 15.187.06 14.122.013 13.056 0 12.717 0 10c0-2.717.01-3.056.06-4.122.05-1.066.217-1.79.465-2.428a4.88 4.88 0 011.153-1.772A4.897 4.897 0 013.45.525C4.088.277 4.812.11 5.878.06 6.944.013 7.283 0 10 0zm0 5a5 5 0 100 10 5 5 0 000-10zm6.5-.25a1.25 1.25 0 10-2.5 0 1.25 1.25 0 002.5 0zM10 7a3 3 0 110 6 3 3 0 010-6z"/></symbol><symbol id="icon_label" viewBox="0 0 296 110"><path d="M.864.048H31.2c7.85 0 13.739 2.176 17.664 6.528 3.925 4.352 5.93 10.795 6.016 19.328l.256 51.456c.085 10.837-1.792 18.987-5.632 24.448-3.84 5.461-10.197 8.192-19.072 8.192H.864V.048zm25.984 90.496c4.01 0 6.016-1.963 6.016-5.888V27.952c0-2.475-.213-4.31-.64-5.504-.341-1.28-1.024-2.133-2.048-2.56-1.024-.427-2.603-.64-4.736-.64h-2.432v71.296h3.84zM63.989 110V.048h44.032v21.248H86.389v21.376h20.736v20.736H86.389v25.216h23.04V110h-45.44zm52.75 0V.048h22.656l10.112 52.608V.048h21.248V110h-21.504l-11.008-55.04V110h-21.504zm62.726 0V.048h21.248V110h-21.248zm30.024 0V.048h33.536l9.216 67.072L261.457.048h33.792V110h-20.096V30.768L262.481 110h-19.712l-13.44-79.232V110h-19.84z"/></symbol><symbol id="icon_logo" viewBox="0 0 73 19"><path d="M15.392 18h-5.376l-4.32-7.848-1.008-2.16H4.64l.096 3.144V18H.464V2.16h5.352l4.32 7.848 1.032 2.16h.024l-.096-3.144V2.16h4.296V18zm7.491 0h-4.848V6h4.848v12zm-.936-13.248L20.46 2.856l-1.488 1.896h-3.384L18.155.528h4.608l2.568 4.224h-3.384zM41.48 5.76c1.2 0 2.152.36 2.856 1.08.704.72 1.056 1.736 1.056 3.048V18h-4.848v-6.912c0-.608-.104-1.04-.312-1.296-.192-.272-.488-.408-.888-.408-.512 0-.912.192-1.2.576-.272.384-.408.952-.408 1.704V18h-4.848v-6.912c0-.608-.104-1.04-.312-1.296-.192-.272-.488-.408-.888-.408-.496 0-.888.192-1.176.576-.288.384-.432.96-.432 1.728V18h-4.85V6h4.368l.12 2.472c.368-.88.896-1.552 1.584-2.016.704-.464 1.544-.696 2.52-.696.912 0 1.68.208 2.304.624.64.416 1.096 1.016 1.368 1.8.368-.784.896-1.384 1.584-1.8.688-.416 1.488-.624 2.4-.624zm18.396 5.952c0 .576-.04 1.04-.12 1.392H51.86c.096.672.312 1.144.648 1.416s.808.408 1.416.408c.976 0 1.576-.384 1.8-1.152l3.912 1.128c-.304 1.088-.968 1.92-1.992 2.496-1.008.56-2.248.84-3.72.84-2.176 0-3.84-.536-4.992-1.608C47.78 15.544 47.203 14 47.203 12c0-1.984.56-3.52 1.68-4.608C50.02 6.304 51.611 5.76 53.66 5.76c2 0 3.536.536 4.608 1.608 1.072 1.056 1.608 2.504 1.608 4.344zm-6.192-2.664c-.528 0-.944.152-1.248.456-.288.304-.48.8-.576 1.488h3.48c-.08-.656-.256-1.144-.528-1.464-.256-.32-.632-.48-1.128-.48zM66.98 18.24c-1.424 0-2.64-.152-3.648-.456-.992-.304-1.816-.8-2.472-1.488l2.28-2.64c.416.496.928.88 1.536 1.152.608.256 1.28.384 2.016.384.416 0 .752-.048 1.008-.144.256-.096.384-.24.384-.432 0-.176-.144-.328-.432-.456-.288-.144-.8-.296-1.536-.456-1.76-.336-3.032-.816-3.816-1.44-.768-.624-1.152-1.432-1.152-2.424 0-.688.224-1.344.672-1.968.464-.624 1.152-1.128 2.064-1.512.928-.4 2.072-.6 3.432-.6 2.608 0 4.488.664 5.64 1.992l-2.184 2.376c-.752-.88-1.84-1.32-3.264-1.32-.496 0-.872.064-1.128.192-.256.112-.384.264-.384.456 0 .16.136.304.408.432.288.112.76.224 1.416.336 1.808.272 3.112.72 3.912 1.344.816.608 1.224 1.456 1.224 2.544 0 1.2-.504 2.192-1.512 2.976-1.008.768-2.496 1.152-4.464 1.152z"/></symbol><symbol id="icon_pinterest" viewBox="0 0 21 21"><path d="M11.928.094a10.768 10.768 0 00-7.13 1.542C2.694 2.959 1.16 4.969.478 7.294a9.637 9.637 0 00.613 6.991c1.076 2.183 2.94 3.918 5.245 4.885a7.455 7.455 0 01.17-2.293c.192-.839 1.35-5.463 1.35-5.463a3.611 3.611 0 01-.338-1.577c0-1.485.893-2.593 2.003-2.593a1.435 1.435 0 011.059.447 1.293 1.293 0 01.34 1.061c0 .9-.603 2.262-.917 3.54a1.483 1.483 0 00.314 1.359 1.6 1.6 0 00.593.434c.23.098.482.142.733.13 1.977 0 3.302-2.43 3.302-5.3 0-2.2-1.517-3.849-4.315-3.849a5.13 5.13 0 00-1.963.311 4.97 4.97 0 00-1.676 1.029c-.48.448-.86.986-1.118 1.58a4.58 4.58 0 00-.379 1.874c-.03.713.21 1.413.675 1.97a.48.48 0 01.181.25c.03.1.026.207-.012.304-.048.184-.169.623-.217.784a.347.347 0 01-.067.15.38.38 0 01-.464.103c-1.441-.553-2.12-2.076-2.12-3.815 0-2.847 2.483-6.255 7.451-6.255 3.955 0 6.584 2.777 6.584 5.747 0 3.91-2.268 6.848-5.619 6.848-.5.015-.998-.09-1.444-.309A2.945 2.945 0 019.33 14.7s-.602 2.316-.721 2.754a7.89 7.89 0 01-1.062 2.131c.962.28 1.96.42 2.965.416a10.783 10.783 0 003.988-.76 10.444 10.444 0 003.38-2.168 9.972 9.972 0 002.256-3.246 9.642 9.642 0 00.788-3.829c0-2.415-.912-4.748-2.566-6.568C16.706 1.61 14.422.425 11.93.095h-.002z"/></symbol><symbol id="icon_search" viewBox="0 0 20 20"><path d="M19 19l-4.35-4.35M17 9A8 8 0 111 9a8 8 0 0116 0z" stroke-width="2" stroke-linecap="round" stroke-linejoin="round"/></symbol><symbol id="icon_twitter" viewBox="0 0 22 18"><path d="M21.162 2.656a8.383 8.383 0 01-2.402.658A4.196 4.196 0 0020.6 1c-.82.488-1.719.83-2.656 1.015a4.182 4.182 0 00-7.126 3.814 11.874 11.874 0 01-8.62-4.37 4.168 4.168 0 00-.566 2.103c0 1.45.738 2.73 1.86 3.48a4.168 4.168 0 01-1.894-.522v.052a4.185 4.185 0 003.355 4.1 4.209 4.209 0 01-1.89.073A4.185 4.185 0 006.97 13.65a8.393 8.393 0 01-6.19 1.732 11.83 11.83 0 006.41 1.88c7.692 0 11.9-6.373 11.9-11.9 0-.18-.006-.362-.014-.54a8.495 8.495 0 002.087-2.165v-.001z"/></symbol></svg>